<svg xmlns="http://www.w3.org/2000/svg" viewBox="0 0 24 20">
  <defs>
    <style>
      .cls-1 {
        fill: #fff;
        stroke: #707070;
        opacity: 0;
      }

      .cls-2 {
        fill: #c9b38a;
      }

      .cls-3 {
        stroke: none;
      }

      .cls-4 {
        fill: none;
      }
    </style>
  </defs>
  <g id="ico_f" transform="translate(6318 -11632)">
    <g id="Rectangle_331" data-name="Rectangle 331" class="cls-1" transform="translate(-6318 11632)">
      <rect class="cls-3" width="24" height="20"/>
      <rect class="cls-4" x="0.5" y="0.5" width="23" height="19"/>
    </g>
    <path id="Path_317" data-name="Path 317" class="cls-2" d="M5.565,243.925a36.21,36.21,0,0,1-.5,4.954,5.268,5.268,0,0,1-1.925,3.244,1.612,1.612,0,0,1-.428,0,5.817,5.817,0,0,1-.677-1.283.953.953,0,0,1,.071-.5c.143-.178.463,0,.535-.463A1.169,1.169,0,0,0,1.5,248.558c-.713-.036-1.141.891-1.1,1.5s.749,2.78,2.745,2.531c1.96-.25,3.208-2.21,3.636-4.242a20.668,20.668,0,0,0,.356-3.849l.392-.321-.392-.5a29.969,29.969,0,0,1,.392-5.667,4.9,4.9,0,0,1,1.319-2.531s.25-.107.356,0a5.784,5.784,0,0,1,.463.677c.036.143,0,1.212,0,1.319s.143.428.642.428c.5.036.891-.428.677-1.426a1.98,1.98,0,0,0-2.281-1.39c-1.034.071-2.281,1.39-2.6,3.493S5.636,243,5.636,243l-.321.285Z" transform="translate(-6317.394 11397.853)"/>
    <path id="Path_318" data-name="Path 318" class="cls-2" d="M63.81,243.225a36.21,36.21,0,0,0,.5,4.954,5.268,5.268,0,0,0,1.925,3.244,1.612,1.612,0,0,0,.428,0,5.816,5.816,0,0,0,.677-1.283.953.953,0,0,0-.071-.5c-.143-.178-.463,0-.535-.463a1.169,1.169,0,0,1,1.141-1.319c.713-.036,1.141.891,1.1,1.5-.036.642-.749,2.78-2.745,2.531-1.96-.25-3.208-2.21-3.636-4.242a20.667,20.667,0,0,1-.356-3.849l-.392-.321.392-.5a29.968,29.968,0,0,0-.392-5.667,4.9,4.9,0,0,0-1.319-2.531s-.25-.107-.356,0a5.783,5.783,0,0,0-.463.677c-.036.107,0,1.212,0,1.319,0,.143-.143.428-.642.428-.5.036-.891-.428-.677-1.426a1.98,1.98,0,0,1,2.281-1.39c1.034.071,2.281,1.39,2.6,3.493s.463,4.42.463,4.42l.321.285Z" transform="translate(-6363.98 11398.553)"/>
  </g>
</svg>
