<?xml version="1.0" standalone="no"?>
<!DOCTYPE svg PUBLIC "-//W3C//DTD SVG 20010904//EN"
 "http://www.w3.org/TR/2001/REC-SVG-20010904/DTD/svg10.dtd">
<svg version="1.0" xmlns="http://www.w3.org/2000/svg"
 width="512.000000pt" height="512.000000pt" viewBox="0 0 512.000000 512.000000"
 preserveAspectRatio="xMidYMid meet">

<g transform="translate(0.000000,512.000000) scale(0.100000,-0.100000)"
fill="#000000" stroke="none">
<path d="M1453 5100 c-17 -10 -38 -29 -45 -42 -19 -34 -19 -4962 0 -4996 17
-29 70 -62 100 -62 41 0 90 30 106 65 14 30 16 274 16 2495 0 2729 6 2511 -65
2544 -44 21 -73 20 -112 -4z"/>
<path d="M2165 4876 c-17 -7 -40 -26 -50 -42 -20 -29 -20 -64 -20 -2274 l0
-2245 23 -32 c33 -47 88 -62 139 -37 23 12 45 32 55 54 17 33 18 162 18 2258
0 2406 3 2270 -52 2306 -35 23 -79 28 -113 12z"/>
<path d="M3565 4876 c-16 -7 -39 -23 -50 -36 -20 -22 -20 -36 -20 -2280 0
-2244 0 -2258 20 -2280 76 -85 196 -43 210 73 3 28 5 1042 3 2252 -3 2030 -4
2202 -20 2223 -35 51 -94 70 -143 48z"/>
<path d="M762 4173 c-66 -32 -62 83 -62 -1613 0 -1700 -5 -1581 64 -1614 43
-20 59 -20 102 0 69 33 64 -86 64 1614 0 1700 5 1581 -64 1614 -42 20 -62 20
-104 -1z"/>
<path d="M2871 3947 c-19 -7 -44 -25 -55 -40 l-21 -28 -3 -1305 c-2 -1418 -5
-1352 52 -1390 55 -35 136 -14 167 43 21 39 21 2627 0 2666 -27 51 -85 73
-140 54z"/>
<path d="M4264 3946 c-17 -8 -40 -26 -52 -41 l-22 -28 0 -1317 0 -1317 22 -28
c39 -50 114 -65 158 -32 9 7 24 23 33 37 16 23 17 117 17 1338 0 1192 -1 1316
-16 1341 -29 50 -88 70 -140 47z"/>
<path d="M63 3244 c-64 -32 -63 -18 -63 -684 0 -671 -2 -653 67 -685 46 -22
94 -13 133 26 l30 31 0 627 0 628 -25 27 c-43 46 -89 56 -142 30z"/>
<path d="M4955 3244 c-69 -35 -65 8 -65 -686 l0 -626 30 -31 c39 -39 87 -48
133 -26 69 32 67 14 67 685 0 668 1 653 -65 684 -41 20 -62 20 -100 0z"/>
</g>
</svg>
