<svg xmlns="http://www.w3.org/2000/svg" viewBox="0 0 35 35">
  <defs>
    <style>
      .cls-1 {
        fill: #f5f5f5;
        opacity: 0;
      }

      .cls-2 {
        fill: none;
        stroke: #f5f5f5;
        stroke-linecap: round;
        stroke-linejoin: round;
      }
    </style>
  </defs>
  <g id="ico_youtube" transform="translate(1968 -14931)">
    <rect id="Rectangle_345" data-name="Rectangle 345" class="cls-1" width="35" height="35" transform="translate(-1968 14931)"/>
    <path id="Exclusion_12" data-name="Exclusion 12" class="cls-2" d="M14.074,19.347c-3.441,0-7.844-.054-9.6-.157a9.76,9.76,0,0,1-1.115-.126,3.458,3.458,0,0,1-.869-.267,2.44,2.44,0,0,1-.7-.5,3.919,3.919,0,0,1-.6-.825A8.223,8.223,0,0,1,.3,14.61,32.509,32.509,0,0,1,0,9.682V9.668A32.57,32.57,0,0,1,.3,4.733a8.323,8.323,0,0,1,.89-2.868,3.913,3.913,0,0,1,.6-.826,2.421,2.421,0,0,1,.7-.5A5.384,5.384,0,0,1,4.474.16C5.25.108,6.651.066,8.526.038,10.152.013,12.123,0,14.074,0s3.92.014,5.541.038c1.876.028,3.277.071,4.052.124A5.362,5.362,0,0,1,25.652.54a2.4,2.4,0,0,1,.7.5,3.886,3.886,0,0,1,.6.826,8.225,8.225,0,0,1,.9,2.869,32.58,32.58,0,0,1,.3,4.937v.014a32.534,32.534,0,0,1-.3,4.927,8.143,8.143,0,0,1-.895,2.863,3.884,3.884,0,0,1-.6.825,2.423,2.423,0,0,1-.7.5,3.453,3.453,0,0,1-.869.267,9.785,9.785,0,0,1-1.117.126C21.9,19.294,17.5,19.347,14.074,19.347ZM11.268,5.386V13.91l7.1-4.262Z" transform="translate(-1964.5 14938.5)"/>
  </g>
</svg>
