<svg xmlns="http://www.w3.org/2000/svg" viewBox="0 0 348.086 96.804">
  <defs>
    <style>
      .cls-1 {
        fill: #fff;
      }

      .cls-2 {
        fill: #c9b38a;
      }

      .cls-3 {
        fill: none;
        stroke: #c9b38a;
      }
    </style>
  </defs>
  <g id="txt_paloma_so" transform="translate(-1092.97 -538.168)">
    <path id="Path_314" data-name="Path 314" class="cls-1" d="M-164.288-5.44V-34.688c0-4.544,1.152-4.672,5.76-4.672,5.568,0,10.176,3.968,10.176,10.944,0,7.36-5.248,10.752-10.88,10.752a9.775,9.775,0,0,1-2.3-.256c-.256-.064-.448.768-.128.832a12.114,12.114,0,0,0,3.136.32c6.464,0,14.144-3.9,14.144-12.928,0-7.424-5.632-10.5-12.672-10.5-3.392,0-6.784.384-8.96.384-2.752,0-5.312-.192-7.36-.192-.192,0-.192.768,0,.768,4.864,0,5.7.768,5.7,4.416V-5.184c0,3.712-.832,4.416-5.7,4.416-.192,0-.192.768,0,.768,2.048,0,4.672-.128,7.424-.128,3.776,0,6.912.128,9.664.128.256,0,.256-.768,0-.768C-163.264-.768-164.288-1.6-164.288-5.44ZM-99.84-.768c-2.88,0-4.544-1.536-7.488-8L-122.176-40.64c-.064-.256-.64-.256-.768,0L-136.32-8.448c-2.56,6.144-4.352,7.68-7.808,7.68-.384,0-.384.768,0,.768,2.56,0,3.9-.256,6.912-.256,3.264,0,4.992.256,7.552.256.384,0,.384-.768,0-.768-5.824,0-7.616-1.856-5.44-7.1l5.76-13.824h12.224l7.616,16.32c1.6,3.584.576,4.608-4.224,4.608-.384,0-.384.768,0,.768,2.3,0,3.968-.256,6.592-.256,2.3,0,4.928.256,7.3.256C-99.52,0-99.52-.768-99.84-.768Zm-28.992-22.144,5.248-12.672,5.952,12.672Zm40.64-11.84c0-3.648.832-4.48,5.7-4.48.192,0,.192-.768,0-.768-1.984,0-4.544.192-7.424.192-2.752,0-5.312-.192-7.36-.192-.192,0-.192.768,0,.768,4.864,0,5.7.768,5.7,4.416V-5.184c0,3.712-.832,4.416-5.7,4.416-.192,0-.192.768,0,.768h29.44c.768,0,.96-.256.96-.96A82.207,82.207,0,0,1-66.3-9.28c0-.256-.7-.32-.7-.064-.7,4.864-2.944,8.128-7.488,8.128h-8.192c-4.672,0-5.5-.64-5.5-4.224ZM-42.24.768c12.16,0,22.464-9.28,22.464-21.184C-19.776-30.72-27.392-40.7-40-40.7c-10.368,0-22.528,6.848-22.528,20.736C-62.528-8.7-54.528.768-42.24.768Zm2.3-1.28c-11.072,0-18.5-9.664-18.5-21.632,0-10.56,5.824-17.152,15.744-17.152,11.392,0,18.816,8.576,18.816,20.672C-23.872-6.912-30.976-.512-39.936-.512ZM35.008-.768c-4.864,0-5.632-.7-5.76-4.416l-1.216-29.76c-.128-3.584,1.856-4.288,6.016-4.288.192,0,.192-.768,0-.768-1.536,0-2.688.128-4.864.128-1.152,0-2.048-.128-2.432-.128a2.448,2.448,0,0,0-1.92,1.6L10.5-5.568l-14.4-31.1C-5.248-39.552-5.7-40-6.848-40c-.512,0-1.664.128-2.816.128-.96,0-2.56-.128-3.84-.128-.192,0-.192.768,0,.768a6.433,6.433,0,0,1,5.184,2.24L-8.96-6.656C-9.024-2.3-10.368-.768-13.952-.768c-.192,0-.192.768,0,.768,1.664,0,3.584-.128,5.632-.128C-5.952-.128-3.968,0-2.112,0c.192,0,.192-.768,0-.768C-6.4-.768-7.552-2.3-7.488-6.656l.512-28.16c0,.064.064.064.064.128L8.7-.448c.192.32.96.32,1.088,0l14.976-34.5,1.088,29.76c.192,3.712-.64,4.416-4.928,4.416-.192,0-.192.768,0,.768,1.792,0,4.032-.128,6.656-.128C30.4-.128,32.96,0,35.008,0,35.264,0,35.264-.768,35.008-.768Zm45.888,0c-2.88,0-4.544-1.536-7.488-8L58.56-40.64c-.064-.256-.64-.256-.768,0L44.416-8.448c-2.56,6.144-4.352,7.68-7.808,7.68-.384,0-.384.768,0,.768,2.56,0,3.9-.256,6.912-.256,3.264,0,4.992.256,7.552.256.384,0,.384-.768,0-.768-5.824,0-7.616-1.856-5.44-7.1L51.392-21.7H63.616l7.616,16.32c1.6,3.584.576,4.608-4.224,4.608-.384,0-.384.768,0,.768,2.3,0,3.968-.256,6.592-.256,2.3,0,4.928.256,7.3.256C81.216,0,81.216-.768,80.9-.768ZM51.9-22.912l5.248-12.672L63.1-22.912Zm53.056-9.344c0-3.648,1.856-7.616,7.424-7.616,6.144,0,8.576,4.864,8.9,8.576.064.384.768.384.768,0l-.576-6.784c0-.448-.32-.832-.96-1.088a19.4,19.4,0,0,0-7.3-1.536c-5.76,0-11.52,3.264-11.52,9.92,0,6.016,4.544,8.64,9.088,11.328,4.672,2.752,9.344,5.44,9.344,11.648,0,5.76-4.1,7.68-8.064,7.68-6.976,0-10.24-5.888-10.944-10.944-.064-.32-.832-.256-.7.128l.96,8.32c.064.576.128.96.576,1.216a18.018,18.018,0,0,0,8.7,2.176c8.7,0,12.992-4.928,12.992-10.816,0-6.144-4.928-8.832-9.6-11.584C109.44-24.32,104.96-26.816,104.96-32.256ZM150.592.768c12.16,0,22.464-9.28,22.464-21.184,0-10.3-7.616-20.288-20.224-20.288-10.368,0-22.528,6.848-22.528,20.736C130.3-8.7,138.3.768,150.592.768Zm2.3-1.28c-11.072,0-18.5-9.664-18.5-21.632,0-10.56,5.824-17.152,15.744-17.152,11.392,0,18.816,8.576,18.816,20.672C168.96-6.912,161.856-.512,152.9-.512Z" transform="translate(1268 579)"/>
    <path id="Path_315" data-name="Path 315" class="cls-2" d="M19.188-25.7H22.5l-.432,2.628a4.67,4.67,0,0,0,3.384-.324l.36-2.3H33.48c.5,0,.864-.18.972-.576-1.188-1.152-3.132-2.736-3.132-2.736l-1.692,2.268H25.992l.324-1.944c.936-.036,1.26-.4,1.368-.864l-4.428-.792-.576,3.6H18.9ZM4.212-4.032A4.8,4.8,0,0,1,2.052.324,1.719,1.719,0,0,0,1.08,2.412c.36.9,1.656.972,2.556.36,1.332-.864,2.412-3.24,1.152-6.84Zm6.624-15.912A26.874,26.874,0,0,1,9.648-16.56h-3.1l-1.26-.54a24.145,24.145,0,0,0,2.3-2.844Zm3.384,4.428v3.78H11.448v-3.78ZM11.448-6.768v-3.924H14.22v3.924ZM6.336-11.736v-3.78H8.928v3.78Zm0,1.044H8.928v3.924H6.336ZM14.22-5.724v1.008h.468a3.8,3.8,0,0,0,2.34-.864v-9.576a2.291,2.291,0,0,0,1.3-.612l-2.988-2.3L13.9-16.56h-3.24a37.259,37.259,0,0,0,3.168-3.06,2.079,2.079,0,0,0,1.368-.36l-2.88-2.664-1.584,1.656H8.28q.54-.81.972-1.62c.9.072,1.188-.108,1.3-.5l-1.3-.288c1.476,0,2.7-.288,3.168-.9l-.18-1.4h5.04c.5,0,.864-.18.936-.576-1.152-1.152-3.1-2.736-3.1-2.736l-1.656,2.268h-1.4l-.288-2.2c.72-.216.972-.576,1.008-1.008l-4.464-.324.468,3.528H1.656L1.944-25.7H8.928l.288,2.3-3.1-.648a25.69,25.69,0,0,1-5.04,9.756l.4.36A21.243,21.243,0,0,0,3.6-15.48V-4.5H4c1.152,0,2.34-.612,2.34-.9v-.324ZM6.7-3.96a15.83,15.83,0,0,1,.18,5.724C8.64,4.032,11.7,0,7.2-4.1ZM9.936-4.1a11.175,11.175,0,0,1,1.3,5.292c2.124,2.124,4.86-2.34-.864-5.508ZM33.66-13.356c.5,0,.864-.18.936-.576-1.116-1.152-3.1-2.808-3.1-2.808L29.808-14.4H27.324v-5.508c1.4-.288,2.628-.576,3.708-.9,1.008.36,1.692.324,2.052-.036l-3.528-3.1a48.567,48.567,0,0,1-11.988,4.752l.108.54a64.382,64.382,0,0,0,6.408-.648v4.9H17.892l.288,1.044h4.752A26.248,26.248,0,0,1,17.424-2.412,8.3,8.3,0,0,0,14-4.284l-.4.252A9.09,9.09,0,0,1,15.876.828c1.692,1.368,3.42-.684,2.016-2.7a24.116,24.116,0,0,0,6.192-6.66V3.06H24.7a3.212,3.212,0,0,0,2.628-1.008V-12.492c.9,4.1,2.34,8.064,5.832,11.448.216-1.872.828-3.2,1.548-3.708l.072-.36a15.308,15.308,0,0,1-6.984-8.244ZM67.9-15.66h-8.46V-25.2c3.276-.432,6.336-.936,8.856-1.476,1.116.4,1.872.36,2.232.036l-3.636-3.42C61.776-28.008,51.876-25.7,43.632-24.8l.108.612c3.96,0,8.064-.252,11.988-.612v9.144H41.112l.288,1.044H55.728V3.06h.684c1.8,0,3.024-.828,3.024-1.08v-16.6H73.4c.5,0,.9-.18,1.008-.576-1.584-1.476-4.176-3.492-4.176-3.492ZM82.26-24.336l.288,1.044h21.924V-20.3H85.68L86-19.26h18.468v1.476h.54c1.116,0,2.772-.72,2.772-1.008v-4.5h4.968c.54,0,.864-.18.972-.576-1.224-1.224-3.276-2.88-3.276-2.88l-1.8,2.412h-.864V-26.6a2.781,2.781,0,0,0,1.512-.756L105.768-30.1l-1.656,1.836H86.22l.324,1.044h17.928v2.88Zm18.828,12.42v-3.6H108v3.6Zm7.488,2.232a5.1,5.1,0,0,0,2.7-.828v-4.572a2.269,2.269,0,0,0,1.26-.612l-3.312-2.484-1.548,1.62h-6.408l-3.384-1.368V-9h.432c1.3,0,2.772-.684,2.772-.936v-.936H108v1.188ZM96.66-12.312c-2.016.216-4,.4-5.868.576v-3.492H95.58c.5,0,.864-.18.972-.576-1.3-1.116-3.24-2.52-3.24-2.52l-1.764,2.052H82.3l.288,1.044h4.9v3.744c-2.556.252-4.68.4-5.976.468L83.16-7.632a1.351,1.351,0,0,0,.9-.72c5.724-1.44,9.792-2.556,12.636-3.42ZM87.768-4.68A13.87,13.87,0,0,1,92.088.5c3.456,1.836,5.328-4.752-4.032-5.472ZM108.216-6.7h-3.2v-1.62c.792-.144,1.152-.4,1.224-.936l-4.464-.4V-6.7h-20.7l.288,1.044h20.412v4.428c0,.468-.18.684-.828.684-.828,0-5.292-.324-5.292-.324v.54a7.891,7.891,0,0,1,3.6,1.152,3.126,3.126,0,0,1,.9,2.232c4.32-.4,4.86-1.8,4.86-4.176V-5.652h7.632c.468,0,.828-.18.9-.576a42.269,42.269,0,0,0-3.456-2.844Z" transform="translate(1092 631.801)"/>
    <path id="Path_316" data-name="Path 316" class="cls-3" d="M0,45,45,0" transform="translate(1311.5 553.5)"/>
  </g>
</svg>
