<svg xmlns="http://www.w3.org/2000/svg" viewBox="0 0 196.648 96.729">
  <defs>
    <style>
      .cls-1 {
        fill: none;
        stroke: #c9b38a;
      }

      .cls-2 {
        fill: #f5f5f5;
      }

      .cls-3 {
        fill: #c9b38a;
      }
    </style>
  </defs>
  <g id="txt_media" transform="translate(-387.864 -12551.168)">
    <path id="Path_322" data-name="Path 322" class="cls-1" d="M0,45,45,0" transform="translate(531.5 12575.5)"/>
    <path id="Path_320" data-name="Path 320" class="cls-2" d="M-46.88-.768c-4.864,0-5.632-.7-5.76-4.416l-1.216-29.76c-.128-3.584,1.856-4.288,6.016-4.288.192,0,.192-.768,0-.768-1.536,0-2.688.128-4.864.128-1.152,0-2.048-.128-2.432-.128a2.448,2.448,0,0,0-1.92,1.6L-71.392-5.568l-14.4-31.1C-87.136-39.552-87.584-40-88.736-40c-.512,0-1.664.128-2.816.128-.96,0-2.56-.128-3.84-.128-.192,0-.192.768,0,.768a6.433,6.433,0,0,1,5.184,2.24l-.64,30.336C-90.912-2.3-92.256-.768-95.84-.768c-.192,0-.192.768,0,.768,1.664,0,3.584-.128,5.632-.128C-87.84-.128-85.856,0-84,0c.192,0,.192-.768,0-.768-4.288,0-5.44-1.536-5.376-5.888l.512-28.16c0,.064.064.064.064.128L-73.184-.448c.192.32.96.32,1.088,0l14.976-34.5,1.088,29.76c.192,3.712-.64,4.416-4.928,4.416-.192,0-.192.768,0,.768,1.792,0,4.032-.128,6.656-.128,2.816,0,5.376.128,7.424.128C-46.624,0-46.624-.768-46.88-.768Zm31.552-8.576c-.64,4.864-3.328,8.128-6.72,8.128h-5.888c-4.736,0-5.568-.64-5.568-4.224V-20.224h8.256c4.1,0,5.5,1.344,5.5,5.184,0,.192.768.192.768,0,0-2.112-.128-3.84-.128-5.76,0-1.536.064-2.56.064-5.056,0-.192-.768-.192-.768,0,0,3.264-1.344,4.416-5.248,4.416H-33.5V-34.432c0-3.648.832-4.352,5.568-4.352h4.416c3.712,0,6.272,2.688,6.272,7.1,0,.256.7.256.7,0l-.128-7.744c0-.384-.128-.576-.576-.576H-42.592c-.192,0-.192.768,0,.768,4.864,0,5.7.768,5.7,4.416V-5.184c0,3.712-.832,4.416-5.7,4.416-.192,0-.192.768,0,.768H-16.16c.768,0,1.024-.256,1.024-.96a67.049,67.049,0,0,1,.576-8.32C-14.56-9.536-15.328-9.6-15.328-9.344ZM7.712.256C19.552.256,29.6-7.872,29.6-20.672c0-11.008-9.088-19.456-22.784-19.456-2.24,0-5.7.32-8.384.32C-4.32-39.808-6.88-40-8.928-40c-.192,0-.192.768,0,.768,4.864,0,5.7.768,5.7,4.416V-5.184c0,3.712-.9,4.416-5.76,4.416-.192,0-.192.768,0,.768C-6.944,0-4.32-.128-1.568-.128,1.376-.128,5.344.256,7.712.256Zm-.64-.832C1.376-.576.16-2.24.16-5.888v-28.8C.16-38.72,2.208-39.3,7.392-39.3c11.072,0,18.048,8.832,18.048,20.032C25.44-7.168,17.76-.576,7.072-.576ZM45.024-5.184v-29.5c0-3.648.832-4.544,5.7-4.544.192,0,.192-.768,0-.768-1.984,0-4.48.192-7.488.192-2.816,0-5.376-.192-7.424-.192-.256,0-.256.768,0,.768,4.864,0,5.76.768,5.76,4.416V-5.184c0,3.712-.9,4.416-5.76,4.416-.256,0-.256.768,0,.768,2.048,0,4.608-.128,7.424-.128,3.008,0,5.44.128,7.488.128.192,0,.192-.768,0-.768C45.792-.768,45.024-1.472,45.024-5.184ZM98.272-.768c-2.88,0-4.544-1.536-7.488-8L75.936-40.64c-.064-.256-.64-.256-.768,0L61.792-8.448C59.232-2.3,57.44-.768,53.984-.768c-.384,0-.384.768,0,.768,2.56,0,3.9-.256,6.912-.256,3.264,0,4.992.256,7.552.256.384,0,.384-.768,0-.768-5.824,0-7.616-1.856-5.44-7.1L68.768-21.7H80.992l7.616,16.32c1.6,3.584.576,4.608-4.224,4.608C84-.768,84,0,84.384,0c2.3,0,3.968-.256,6.592-.256,2.3,0,4.928.256,7.3.256C98.592,0,98.592-.768,98.272-.768ZM69.28-22.912l5.248-12.672L80.48-22.912Z" transform="translate(486 12592)"/>
    <path id="Path_321" data-name="Path 321" class="cls-3" d="M26.712-24.912v4.032H19.764v-4.032Zm-6.948,9.288v-4.212h6.948v4.212Zm-6.12-9.288h3.1V-12.6h.54c1.152,0,2.484-.576,2.484-.864V-14.58h6.948v1.368h.576c1.116,0,2.448-.576,2.448-.9v-10.8H33.7c.5,0,.828-.18.936-.576-1.044-1.08-2.772-2.628-2.772-2.628l-1.512,2.16h-.612v-3.1c.936-.108,1.26-.468,1.332-.972l-4.356-.432v4.5H19.764v-3.06c.936-.108,1.224-.468,1.3-.972l-4.32-.432v4.464H13.356ZM4.752-10.3c.648-2.448,1.3-5.544,1.908-8.568,1.188-.288,2.3-.576,3.384-.864A48.6,48.6,0,0,1,8.136-8.64,37.431,37.431,0,0,0,4.752-10.3ZM15.264-21.78l-2.088.216c.036-.612.072-1.188.108-1.764q1.242-.108,1.4-.972l-4.536-.756c0,1.224,0,2.484-.036,3.744-1.08.108-2.088.18-3.06.216.54-3.024.972-5.832,1.26-7.812,1.044-.108,1.26-.432,1.4-.864l-4.392-.756c-.144,2.16-.612,5.832-1.224,9.576-1.3.072-2.412.072-3.24.072l1.08,3.6a1.151,1.151,0,0,0,.936-.792l.756-.144c-.5,2.952-1.08,5.8-1.548,7.668a38.033,38.033,0,0,1,5.22,4.284A23.856,23.856,0,0,1,1.08,2.7l.432.36a21.314,21.314,0,0,0,7.38-7.632,13.521,13.521,0,0,1,2.052,2.808c2.232,1.44,4.716-1.62-.684-5.544A42.009,42.009,0,0,0,13.1-20.556c.792-.252,1.548-.468,2.2-.684ZM12.528,1.26a20.833,20.833,0,0,0,6.984-6.228c.828.108,1.152-.108,1.332-.468L16.668-7.452A23.3,23.3,0,0,1,12.132.828Zm13.5-7.884C27.936-4.824,30.42-1.872,31.284.5c3.42,2.16,5.544-4.716-4.9-7.416Zm3.708-3.42H24.768v-2.88c.648-.108.9-.4.936-.756l-4.1-.432v4.068H13.5L13.788-9H21.6V3.1h.648c1.044,0,2.52-.684,2.52-1.008V-9h9.144c.5,0,.864-.18.936-.576-1.224-1.188-3.276-2.844-3.276-2.844ZM46.4-26.928h4.9V-23.8H50.256l-2.3-1.044V-18.4H46.4Zm3.348,4.176H51.3V-18.4H49.752Zm11.772-2.52v3.348H59.58v-3.348Zm3.924,0v3.348H63.54v-3.348Zm4.068,0v3.348H67.5v-3.348ZM67.5-17.388V-20.88h2.016v3.492ZM63.54-20.88h1.908v3.492H63.54Zm-2.016,3.492H59.58V-20.88h1.944Zm-7.74.036c-.144.864-.288,1.908-.4,2.484l.576.252c.576-.612,1.476-1.692,2.016-2.412a5.151,5.151,0,0,0,.936-.144v2.016h.432c1.368,0,2.232-.54,2.232-.756v-.432h9.936v.72h.432a3.294,3.294,0,0,0,.612-.036l-1.152,1.368H55.764l.288,1.044h17.1c.5,0,.864-.18.936-.576-.828-.72-1.944-1.584-2.592-2.088.468-.18.756-.36.756-.468v-8.712a2,2,0,0,0,1.332-.612l-2.844-2.16-1.332,1.548H67.5V-29.16c.72-.108.972-.4,1.044-.828l-3.1-.36v4.032H63.54V-29.2c.648-.108.936-.4,1.008-.792l-3.024-.36v4.032H59.976l-3.06-1.26v9.756L54.9-19.764l-1.188,1.188V-26.64a2.3,2.3,0,0,0,1.656-.684l-3.2-2.3-1.3,1.656H46.8L44.064-29.16V-18.4h-.5a10.044,10.044,0,0,0-.4-1.26l-.612-.036a3.879,3.879,0,0,1-.936,3.132,1.647,1.647,0,0,0-.828,2.016,1.46,1.46,0,0,0,2.2.216,3.654,3.654,0,0,0,.756-3.024Zm-7.2,7.056A12.314,12.314,0,0,1,49.5-8.46a1.23,1.23,0,0,0,1.584-.612v1.728c-1.8.648-3.564,1.224-4.608,1.512.072-.864.108-1.656.108-2.448Zm4.5-2.772v3.24c-.288-.792-1.584-1.584-4.5-1.3v-1.944Zm.936-2.592-1.26,1.548H47.088l-3.24-1.368v7.2c0,3.816-.216,7.7-2.808,10.8l.432.432A10.5,10.5,0,0,0,46.4-5.184l1.26,2.448a1.187,1.187,0,0,0,.684-.936c1.044-.936,1.98-1.8,2.736-2.52V-.828c0,.468-.144.648-.648.648-.576,0-2.952-.18-2.952-.18V.216a3.739,3.739,0,0,1,2.2.828,2.986,2.986,0,0,1,.54,1.728c3.1-.288,3.492-1.368,3.492-3.348v-12.1a2.82,2.82,0,0,0,1.4-.684ZM60.876-5.04h6.912v.72l-.9-.324A42.094,42.094,0,0,1,65.124.4H61.992c1.512-.288,2.232-2.736-1.4-4.464.18-.144.288-.252.288-.324Zm6.912-5.184v4.14H60.876v-4.14ZM69.48.4h-3.2A29.847,29.847,0,0,0,69.3-2.7c.756.072,1.224-.216,1.368-.612l-2.052-.72a3.267,3.267,0,0,0,2.16-.72v-5.292a1.86,1.86,0,0,0,1.26-.612l-2.952-2.232-1.4,1.62H61.272L58-12.6v9h.468a4.759,4.759,0,0,0,1.08-.108,10.007,10.007,0,0,1,.9,3.528A2.029,2.029,0,0,0,61.488.4H54.54l.288,1.044H73.62c.5,0,.864-.18.972-.576-1.26-1.152-3.348-2.7-3.348-2.7Z" transform="translate(387 12644.801)"/>
  </g>
</svg>
