<svg xmlns="http://www.w3.org/2000/svg" viewBox="0 0 332.522 96.765">
  <defs>
    <style>
      .cls-1 {
        fill: none;
        stroke: #c9b38a;
      }

      .cls-2 {
        fill: #f5f5f5;
      }

      .cls-3 {
        fill: #d5b579;
      }
    </style>
  </defs>
  <g id="txt_calendar" transform="translate(-526.332 -12396.168)">
    <path id="Path_318" data-name="Path 318" class="cls-1" d="M0,45,45,0" transform="translate(813.5 12426.5)"/>
    <path id="Path_317" data-name="Path 317" class="cls-2" d="M-139.84-40.7c-12.032,0-23.3,8.192-23.3,20.288,0,9.92,6.528,21.184,22.784,21.184a29.867,29.867,0,0,0,12.224-2.5c.768-.32.832-.448,1.024-1.472l.9-6.848c0-.192-.7-.384-.768-.064C-129.216-3.072-134.08,0-140.16,0c-10.176,0-19.008-9.856-19.008-22.144,0-10.368,6.72-17.216,16.832-17.216,7.3,0,13.056,2.432,14.784,9.344.064.32.7.128.7-.064l-.7-6.72a1.5,1.5,0,0,0-.9-1.536C-131.072-39.872-135.808-40.7-139.84-40.7ZM-79.04-.768c-2.88,0-4.544-1.536-7.488-8L-101.376-40.64c-.064-.256-.64-.256-.768,0L-115.52-8.448c-2.56,6.144-4.352,7.68-7.808,7.68-.384,0-.384.768,0,.768,2.56,0,3.9-.256,6.912-.256,3.264,0,4.992.256,7.552.256.384,0,.384-.768,0-.768-5.824,0-7.616-1.856-5.44-7.1l5.76-13.824H-96.32L-88.7-5.376c1.6,3.584.576,4.608-4.224,4.608-.384,0-.384.768,0,.768,2.3,0,3.968-.256,6.592-.256,2.3,0,4.928.256,7.3.256C-78.72,0-78.72-.768-79.04-.768Zm-28.992-22.144,5.248-12.672,5.952,12.672Zm40.64-11.84c0-3.648.832-4.48,5.7-4.48.192,0,.192-.768,0-.768-1.984,0-4.544.192-7.424.192-2.752,0-5.312-.192-7.36-.192-.192,0-.192.768,0,.768,4.864,0,5.7.768,5.7,4.416V-5.184c0,3.712-.832,4.416-5.7,4.416-.192,0-.192.768,0,.768h29.44c.768,0,.96-.256.96-.96A82.206,82.206,0,0,1-45.5-9.28c0-.256-.7-.32-.7-.064-.7,4.864-2.944,8.128-7.488,8.128h-8.192c-4.672,0-5.5-.64-5.5-4.224ZM-14.784-9.344c-.64,4.864-3.328,8.128-6.72,8.128h-5.888c-4.736,0-5.568-.64-5.568-4.224V-20.224H-24.7c4.1,0,5.5,1.344,5.5,5.184,0,.192.768.192.768,0,0-2.112-.128-3.84-.128-5.76,0-1.536.064-2.56.064-5.056,0-.192-.768-.192-.768,0,0,3.264-1.344,4.416-5.248,4.416H-32.96V-34.432c0-3.648.832-4.352,5.568-4.352h4.416c3.712,0,6.272,2.688,6.272,7.1,0,.256.7.256.7,0l-.128-7.744c0-.384-.128-.576-.576-.576H-42.048c-.192,0-.192.768,0,.768,4.864,0,5.7.768,5.7,4.416V-5.184c0,3.712-.832,4.416-5.7,4.416-.192,0-.192.768,0,.768h26.432c.768,0,1.024-.256,1.024-.96a67.049,67.049,0,0,1,.576-8.32C-14.016-9.536-14.784-9.6-14.784-9.344ZM33.984-40c-1.6,0-3.648.192-5.632.192-2.112,0-3.84-.192-5.5-.192-.192,0-.192.768,0,.768,3.584,0,4.736,1.6,4.736,5.952V-5.248L2.3-36.672C.32-39.1.448-40-.64-40c-.512,0-1.664.128-2.88.128S-6.4-40-7.808-40c-.256,0-.256.768,0,.768A6.849,6.849,0,0,1-3.2-37.312V-6.656C-3.2-2.3-4.288-.768-8-.768-8.192-.768-8.192,0-8,0c1.664,0,3.584-.128,5.632-.128,2.112,0,3.84.128,5.44.128.256,0,.256-.768,0-.768C-.512-.768-1.792-2.3-1.792-6.656V-35.968c.32.32.7.768,1.088,1.216L28.224.832c.192.128.768.064.768-.128V-33.28c0-4.352,1.344-5.952,4.992-5.952C34.24-39.232,34.24-40,33.984-40ZM54.656.256c11.84,0,21.888-8.128,21.888-20.928,0-11.008-9.088-19.456-22.784-19.456-2.24,0-5.7.32-8.384.32-2.752,0-5.312-.192-7.36-.192-.192,0-.192.768,0,.768,4.864,0,5.7.768,5.7,4.416V-5.184c0,3.712-.9,4.416-5.76,4.416-.192,0-.192.768,0,.768C40,0,42.624-.128,45.376-.128,48.32-.128,52.288.256,54.656.256Zm-.64-.832c-5.7,0-6.912-1.664-6.912-5.312v-28.8c0-4.032,2.048-4.608,7.232-4.608,11.072,0,18.048,8.832,18.048,20.032C72.384-7.168,64.7-.576,54.016-.576Zm69.312-.192c-2.88,0-4.544-1.536-7.488-8L100.992-40.64c-.064-.256-.64-.256-.768,0L86.848-8.448C84.288-2.3,82.5-.768,79.04-.768c-.384,0-.384.768,0,.768,2.56,0,3.9-.256,6.912-.256C89.216-.256,90.944,0,93.5,0c.384,0,.384-.768,0-.768-5.824,0-7.616-1.856-5.44-7.1L93.824-21.7h12.224l7.616,16.32c1.6,3.584.576,4.608-4.224,4.608-.384,0-.384.768,0,.768,2.3,0,3.968-.256,6.592-.256,2.3,0,4.928.256,7.3.256C123.648,0,123.648-.768,123.328-.768ZM94.336-22.912l5.248-12.672,5.952,12.672ZM166.848-.768c-5.568,0-10.816-5.376-21.632-21.312a11.816,11.816,0,0,0,6.528-10.112c0-4.928-3.584-8-10.432-8-1.92,0-5.312.384-7.488.384-2.752,0-5.312-.192-7.3-.192-.256,0-.256.768,0,.768,4.864,0,5.7.768,5.7,4.416V-5.184c0,3.712-.96,4.416-5.824,4.416-.192,0-.192.768,0,.768,2.048,0,4.672-.128,7.424-.128,2.944,0,5.376.128,7.424.128.256,0,.256-.768,0-.768-4.928,0-5.7-.7-5.7-4.416v-15.3c.832.064,1.984.128,2.752.128a15.534,15.534,0,0,0,3.9-.512C150.72-7.936,157.184,0,159.424,0h7.424C167.1,0,167.1-.768,166.848-.768Zm-31.3-21.248V-34.688c0-4.544,1.152-4.672,4.288-4.672,4.672,0,8.32,2.432,8.32,9.344,0,5.824-2.56,8.256-8.768,8.256C138.24-21.76,136.768-21.888,135.552-22.016Z" transform="translate(691 12437)"/>
    <path id="Path_319" data-name="Path 319" class="cls-3" d="M12.672-27.756c1.656,1.764,3.492,4.536,3.852,6.912,3.24,2.376,5.868-4.248-3.492-7.164Zm-8.316-1.8a12.773,12.773,0,0,1,3.852,5.22c3.42,2.088,5.8-4.5-3.564-5.508ZM1.332-21.6A11.915,11.915,0,0,1,5-16.7c3.312,1.944,5.544-4.5-3.348-5.148ZM12.6-25.344C5.616-9.612,5.616-9.612,4.824-8.208c-.36.756-.5.756-1.008.756H2.232V-6.7a3.539,3.539,0,0,1,1.8.54c.864.576,1.044,3.708.432,7.416.216,1.3.9,1.872,1.692,1.872A2.616,2.616,0,0,0,8.748.324c.108-3.168-1.188-4.536-1.26-6.372a14.731,14.731,0,0,1,.576-3.42c.54-1.98,3.528-10.944,5.148-15.768ZM16.344-13.5a27.351,27.351,0,0,1,9.108,3.312c3.312.576,3.492-5.868-9.108-4.248v-3.636H28.512v8.46A117.6,117.6,0,0,1,16.02-7.128a31.961,31.961,0,0,0,.324-5.112Zm11.808-5.616H24.48v-9.936c.864-.144,1.116-.468,1.188-.936l-4.5-.432v11.3H16.884l-3.816-1.44v8.316c0,5-.252,10.512-3.276,14.9l.4.4a14.328,14.328,0,0,0,5.688-9.468l1.476,3.24a1.4,1.4,0,0,0,.9-.9A93.094,93.094,0,0,0,28.512-8.64v7.092c0,.468-.144.684-.756.684C27-.864,23.9-1.08,23.9-1.08v.54A4.338,4.338,0,0,1,26.676.612a4.227,4.227,0,0,1,.72,2.376c3.96-.4,4.428-1.764,4.428-4.176V-17.46a3.089,3.089,0,0,0,1.548-.72l-3.6-2.772Zm2.016-9.612a65.163,65.163,0,0,1-4.32,8.172l.4.36a66.89,66.89,0,0,0,6.7-5.616c.864.144,1.188,0,1.4-.4ZM45.72-7.452a6.592,6.592,0,0,1-3.1,5.436,1.933,1.933,0,0,0-1.116,2.3c.432,1.044,1.836,1.08,2.88.4C46.044-.324,47.556-3.2,46.3-7.416ZM64.8-25.272v3.636H50.4v-3.636ZM50.4-16.884v-3.708H64.8v3.708Zm0,4.824v-3.78H64.8v3.78Zm0,1.044H64.8v2.052h.54A5.156,5.156,0,0,0,68.22-9.9V-24.66a2.555,2.555,0,0,0,1.476-.756l-3.564-2.808L64.44-26.316H56.916c.936-.756,2.088-1.728,2.808-2.412.756-.036,1.26-.288,1.4-.9L55.764-30.6c-.252,1.224-.648,2.988-.972,4.284H50.616l-3.6-1.512V-8.676h.54c1.4,0,2.844-.72,2.844-1.08Zm5,1.836a10.136,10.136,0,0,1,2.952,5.724c2.772,2.376,5.688-3.564-2.592-6.012ZM66.456-5.472h-.4a22.951,22.951,0,0,1-1.476,3.888,1.085,1.085,0,0,1-1.008.5c-.612.036-2.16.036-4.068.036H54.756c-1.548,0-1.692-.108-1.692-.648V-7.74c.684-.108,1.044-.432,1.116-.9l-4.536-.4v7.992c0,2.412.792,2.988,4.572,2.988h4.968c7.236,0,8.784-.468,8.784-1.98,0-.648-.288-1.044-1.4-1.4Zm-.144-1.98c2.016,1.872,4.14,4.968,4.572,7.6C74.3,2.592,76.9-4.752,66.672-7.7Zm39.06-8.964A26.364,26.364,0,0,1,100.3-6.84a22.562,22.562,0,0,1-6.372-9.576ZM100.44-26.6,99.288-17.46h-7.92c.4-2.916.54-5.976.648-9.144Zm6.876,7.2-2.088,1.944h-2.484l1.188-8.712c.684-.072,1.008-.18,1.26-.5l-3.42-2.664-1.512,1.692h-18.4l.324,1.044H88.38C88.416-15.66,87.228-5.652,80.6,2.268l.36.324c6.516-4.9,9.144-11.448,10.26-19.008H93.2a28.514,28.514,0,0,0,5.472,11.34,31.949,31.949,0,0,1-12.924,7.56l.288.5C92.124,1.728,96.8-.36,100.4-3.2a28.326,28.326,0,0,0,9.972,6.264A3.9,3.9,0,0,1,113.544.324l.108-.4a34.749,34.749,0,0,1-11.124-5,28.055,28.055,0,0,0,6.624-10.692c.864-.072,1.26-.144,1.512-.54Zm30.456-11.16a9.062,9.062,0,0,1,2.736,4.608c3.06,2.124,5.76-3.924-2.448-4.86Zm-15.8.864a11.89,11.89,0,0,1,3.312,5.148c3.1,2.232,5.832-3.852-2.988-5.436Zm-2.3,8.172A9.979,9.979,0,0,1,122.8-16.7c3.1,2.016,5.58-3.924-2.808-5.076Zm9.216-3.06c-4.932,14.976-4.932,14.976-5.508,16.308-.324.792-.468.792-.9.792H120.96v.756a3.078,3.078,0,0,1,1.728.54c.792.54.972,3.816.36,7.416.18,1.26.828,1.836,1.584,1.836,1.44,0,2.412-1.08,2.484-2.772.144-3.1-1.116-4.644-1.188-6.408a17.8,17.8,0,0,1,.4-3.384c.324-1.908,2.2-10.4,3.24-14.976Zm-.684,27.5A27.8,27.8,0,0,0,139.428-.972c1.008.216,1.62.072,1.872-.288l-4.248-2.628a22.675,22.675,0,0,1-9.036,6.336Zm14.832-5.724a19.61,19.61,0,0,1,6.732,5.04C152.6,5,158.8-1.368,143.244-3.312Zm1.98-18.108H132.66a4.985,4.985,0,0,0,.72-3.348H149c-.072.792-.18,1.692-.288,2.376-.936-.72-1.764-1.332-1.764-1.332Zm1.836,5.544v3.888H142.6v-3.888ZM142.6-6.084V-10.44h4.248v4.356Zm-7.668-4.356h4.464v4.356h-4.464Zm4.464-4.932v3.888h-4.464v-3.888Zm11.124-11.772-1.8,1.836H133.272a12.061,12.061,0,0,0-.432-1.944l-.5-.036a5.879,5.879,0,0,1-2.484,4.572c-1.8,2.34,1.188,3.852,2.7,1.944l.252.9h6.588v3.456h-4.068l-3.528-1.44V-3.132h.54c1.62,0,2.592-.612,2.592-.864V-5.04h11.916v1.26h.54a3.752,3.752,0,0,0,2.736-.828V-15.156a2.022,2.022,0,0,0,1.368-.612l-3.2-2.448-1.584,1.8h-4.1v-3.456h6.948c.54,0,.9-.18,1.008-.576-.36-.324-.792-.648-1.188-.972.936-.648,2.268-1.62,3.06-2.232.684-.036,1.08-.108,1.332-.4Zm36.612,14.9V-1.3h-9.144V-15.444h7.38v2.016h.612c1.224,0,2.7-.612,2.7-.9v-11.2c.9-.144,1.188-.468,1.26-.936l-4.572-.468v10.44h-7.38v-12.2c.936-.144,1.188-.5,1.3-1.008l-4.752-.5v13.716h-7.164v-9.144c1.008-.144,1.332-.468,1.4-.864l-4.68-.468v10.188a5.768,5.768,0,0,0-1.08.936l3.492,2.2,1.116-1.8h6.912V-1.3h-8.892v-9.756c1.008-.144,1.332-.468,1.4-.864l-4.716-.468V-1.62a5.9,5.9,0,0,0-1.116.936l3.564,2.268,1.116-1.836h21.24V2.664h.612c1.26,0,2.736-.576,2.736-.864V-10.836c.864-.144,1.188-.468,1.224-.936Z" transform="translate(525 12489.801)"/>
  </g>
</svg>
